<svg width="41" height="40" viewBox="0 0 41 40" fill="none" xmlns="http://www.w3.org/2000/svg">
<rect x="0.5" width="40" height="40" rx="12" fill="#F8B602"/>
<path d="M31.4334 14.6267C31.049 14.5483 30.6962 14.3586 30.4188 14.0812C30.1414 13.8038 29.9518 13.451 29.8734 13.0667C29.8119 12.7655 29.6483 12.4948 29.4101 12.3005C29.172 12.1061 28.8741 11.9999 28.5667 12H16.5V13.3333C16.5 13.5101 16.4298 13.6797 16.3048 13.8047C16.1798 13.9298 16.0102 14 15.8334 14C15.6566 14 15.487 13.9298 15.362 13.8047C15.2369 13.6797 15.1667 13.5101 15.1667 13.3333V12H13.7667C13.4593 11.9999 13.1614 12.1061 12.9233 12.3005C12.6852 12.4948 12.5215 12.7655 12.46 13.0667C12.3817 13.451 12.192 13.8038 11.9146 14.0812C11.6372 14.3586 11.2844 14.5483 10.9 14.6267C10.5989 14.6881 10.3282 14.8518 10.1338 15.0899C9.93945 15.328 9.83331 15.626 9.83337 15.9333V25.4C9.83331 25.7074 9.93945 26.0053 10.1338 26.2434C10.3282 26.4816 10.5989 26.6452 10.9 26.7067C11.2844 26.7851 11.6372 26.9747 11.9146 27.2521C12.192 27.5295 12.3817 27.8823 12.46 28.2667C12.5215 28.5678 12.6852 28.8385 12.9233 29.0329C13.1614 29.2273 13.4593 29.3334 13.7667 29.3333H15.1667V28C15.1667 27.8232 15.2369 27.6536 15.362 27.5286C15.487 27.4036 15.6566 27.3333 15.8334 27.3333C16.0102 27.3333 16.1798 27.4036 16.3048 27.5286C16.4298 27.6536 16.5 27.8232 16.5 28V29.3333H28.5667C28.8741 29.3334 29.172 29.2273 29.4101 29.0329C29.6483 28.8385 29.8119 28.5678 29.8734 28.2667C29.9518 27.8823 30.1414 27.5295 30.4188 27.2521C30.6962 26.9747 31.049 26.7851 31.4334 26.7067C31.7345 26.6452 32.0052 26.4816 32.1996 26.2434C32.394 26.0053 32.5001 25.7074 32.5 25.4V15.9333C32.5001 15.626 32.394 15.328 32.1996 15.0899C32.0052 14.8518 31.7345 14.6881 31.4334 14.6267ZM16.5 25.4333C16.5 25.6101 16.4298 25.7797 16.3048 25.9047C16.1798 26.0298 16.0102 26.1 15.8334 26.1C15.6566 26.1 15.487 26.0298 15.362 25.9047C15.2369 25.7797 15.1667 25.6101 15.1667 25.4333V23.9667C15.1667 23.7899 15.2369 23.6203 15.362 23.4953C15.487 23.3702 15.6566 23.3 15.8334 23.3C16.0102 23.3 16.1798 23.3702 16.3048 23.4953C16.4298 23.6203 16.5 23.7899 16.5 23.9667V25.4333ZM16.5 21.4C16.5 21.5768 16.4298 21.7464 16.3048 21.8714C16.1798 21.9964 16.0102 22.0667 15.8334 22.0667C15.6566 22.0667 15.487 21.9964 15.362 21.8714C15.2369 21.7464 15.1667 21.5768 15.1667 21.4V19.9333C15.1667 19.7565 15.2369 19.587 15.362 19.4619C15.487 19.3369 15.6566 19.2667 15.8334 19.2667C16.0102 19.2667 16.1798 19.3369 16.3048 19.4619C16.4298 19.587 16.5 19.7565 16.5 19.9333V21.4ZM16.5 17.3653C16.5 17.5421 16.4298 17.7117 16.3048 17.8367C16.1798 17.9618 16.0102 18.032 15.8334 18.032C15.6566 18.032 15.487 17.9618 15.362 17.8367C15.2369 17.7117 15.1667 17.5421 15.1667 17.3653V15.8987C15.1667 15.7219 15.2369 15.5523 15.362 15.4273C15.487 15.3022 15.6566 15.232 15.8334 15.232C16.0102 15.232 16.1798 15.3022 16.3048 15.4273C16.4298 15.5523 16.5 15.7219 16.5 15.8987V17.3653ZM23.8334 18C23.8312 18.5895 23.6337 19.1616 23.2718 19.627C22.91 20.0923 22.4041 20.4246 21.8334 20.572V25.3333C21.8334 25.5101 21.7631 25.6797 21.6381 25.8047C21.5131 25.9298 21.3435 26 21.1667 26C20.9899 26 20.8203 25.9298 20.6953 25.8047C20.5703 25.6797 20.5 25.5101 20.5 25.3333V20.572C19.9293 20.4246 19.4234 20.0923 19.0616 19.627C18.6997 19.1616 18.5022 18.5895 18.5 18V16C18.5 15.8232 18.5703 15.6536 18.6953 15.5286C18.8203 15.4036 18.9899 15.3333 19.1667 15.3333C19.3435 15.3333 19.5131 15.4036 19.6381 15.5286C19.7631 15.6536 19.8334 15.8232 19.8334 16V18C19.836 18.2299 19.899 18.4551 20.016 18.6531C20.133 18.851 20.2999 19.0148 20.5 19.128V16C20.5 15.8232 20.5703 15.6536 20.6953 15.5286C20.8203 15.4036 20.9899 15.3333 21.1667 15.3333C21.3435 15.3333 21.5131 15.4036 21.6381 15.5286C21.7631 15.6536 21.8334 15.8232 21.8334 16V19.128C22.0335 19.0148 22.2004 18.851 22.3174 18.6531C22.4344 18.4551 22.4974 18.2299 22.5 18V16C22.5 15.8232 22.5703 15.6536 22.6953 15.5286C22.8203 15.4036 22.9899 15.3333 23.1667 15.3333C23.3435 15.3333 23.5131 15.4036 23.6381 15.5286C23.7631 15.6536 23.8334 15.8232 23.8334 16V18ZM28.416 22.7867L26.5 23.7453V25.3333C26.5 25.5101 26.4298 25.6797 26.3048 25.8047C26.1798 25.9298 26.0102 26 25.8334 26C25.6566 26 25.487 25.9298 25.362 25.8047C25.2369 25.6797 25.1667 25.5101 25.1667 25.3333V16C25.1665 15.868 25.2054 15.7388 25.2787 15.629C25.3519 15.5191 25.4561 15.4335 25.5781 15.383C25.7001 15.3324 25.8343 15.3192 25.9638 15.345C26.0932 15.3708 26.2121 15.4345 26.3054 15.528C27.9809 17.0914 28.9991 19.2336 29.1534 21.52C29.1676 21.7801 29.1054 22.0386 28.9744 22.2637C28.8433 22.4888 28.6492 22.6706 28.416 22.7867Z" fill="white"/>
</svg>
