<?xml version="1.0" encoding="iso-8859-1"?>
<!-- Uploaded to: SVG Repo, www.svgrepo.com, Generator: SVG Repo Mixer Tools -->
<!DOCTYPE svg PUBLIC "-//W3C//DTD SVG 1.1//EN" "http://www.w3.org/Graphics/SVG/1.1/DTD/svg11.dtd">
<svg height="800px" width="800px" version="1.1" id="Capa_1" xmlns="http://www.w3.org/2000/svg" xmlns:xlink="http://www.w3.org/1999/xlink" 
	 viewBox="0 0 390.959 390.959" xml:space="preserve">
<g>
	<path style="fill:#3F2D20;" d="M383.442,210.526h-24.255c-1.206-29.882-25.537-53.893-55.543-54.596
		c-14.338-30.119-44.482-49.318-78.178-49.318c-8.78,0-17.418,1.347-25.657,3.9c-7.978-11.048-20.348-18.072-34.188-19.126
		c-3.11-0.235-6.235-0.163-9.28,0.215c-19.342,2.383-34.723,16.247-39.383,34.667c-5.068,0.079-10.128,0.577-15.061,1.526
		c-39.907,7.664-69.055,42.253-70.134,82.731H7.517c-4.152,0-7.517,3.365-7.517,7.517c0,9.094,19.73,34.214,29.285,44.955
		c14.898,16.747,36.762,36.71,56.318,36.71h219.754c19.555,0,41.419-19.963,56.317-36.71c9.555-10.74,29.286-35.861,29.286-44.955
		C390.959,213.891,387.593,210.526,383.442,210.526z M348.86,254.764c-17.274,19.007-33.13,29.909-43.503,29.909H85.602
		c-10.373,0-26.229-10.902-43.503-29.909c-10.073-11.085-17.915-21.907-22.544-29.204h351.848
		C366.774,232.857,358.933,243.679,348.86,254.764z M164.482,106.378c8.121,0.618,15.502,4.272,20.845,10.108
		c-6.168,3.228-11.977,7.194-17.271,11.882c-2.94,2.606-5.718,5.44-8.282,8.422c-8.571-4.694-17.82-7.868-27.464-9.431
		c3.874-11.142,13.719-19.339,25.876-20.838C160.249,106.265,162.368,106.216,164.482,106.378z M344.144,210.526H329.48
		c-1.182-13.965-12.919-24.969-27.184-24.969c-14.266,0-26.003,11.003-27.185,24.969h-6.161c0-0.074,0.006-0.147,0.006-0.221
		c0-6.177-1.267-12.062-3.551-17.415c5.552-10.226,22.003-21.959,36.891-21.959C324.629,170.931,342.935,188.489,344.144,210.526z
		 M218.582,181.398c1.903-0.385,3.872-0.58,5.853-0.58c16.259,0,29.487,13.227,29.487,29.487c0,0.074-0.005,0.147-0.006,0.221
		h-58.962c-0.001-0.074-0.006-0.147-0.006-0.221C194.948,196.312,204.884,184.156,218.582,181.398z M224.435,165.783
		c-2.98,0-5.954,0.296-8.829,0.878c-7.176,1.445-13.668,4.601-19.089,8.986c-1.297-2.711-2.743-5.351-4.314-7.916
		c7.907-10.354,20.029-16.427,33.262-16.427c15.253,0,29.081,8.155,36.52,21.372c-2.043,2.043-3.953,4.23-5.679,6.586
		C248.214,170.956,236.919,165.783,224.435,165.783z M290.266,210.526c1.089-5.651,6.066-9.935,12.029-9.935
		c5.964,0,10.94,4.284,12.029,9.935H290.266z M274.027,163.46c-10.325-16.876-28.549-27.19-48.562-27.19
		c-16.528,0-31.788,6.96-42.486,19.005c-3.235-3.646-6.789-7.008-10.597-10.064c1.777-1.964,3.667-3.839,5.644-5.589
		c13.086-11.593,29.934-17.977,47.44-17.977c26.1,0,49.617,13.939,62.225,36.18C282.899,159.109,278.306,161.009,274.027,163.46z
		 M185.649,188.502c-3.662,6.496-5.736,13.958-5.736,21.803c0,0.074,0.005,0.147,0.005,0.221h-4.705
		c-1.223-30.33-26.267-54.629-56.891-54.629c-30.624,0-55.668,24.3-56.891,54.629H46.797c1.074-33.28,25.098-61.662,57.938-67.967
		c4.442-0.854,9.015-1.288,13.588-1.288C148.783,141.271,175.432,160.117,185.649,188.502z M118.322,185.557
		c-14.266,0-26.003,11.003-27.185,24.969H76.474c1.209-22.036,19.515-39.595,41.848-39.595c22.333,0,40.639,17.559,41.848,39.595
		h-14.664C144.324,196.56,132.587,185.557,118.322,185.557z M130.351,210.526h-24.058c1.089-5.651,6.066-9.935,12.03-9.935
		C124.286,200.591,129.262,204.875,130.351,210.526z"/>
	<path style="fill:#FDD44B;" d="M302.296,200.591c-5.964,0-10.941,4.284-12.029,9.935h24.058
		C313.236,204.875,308.26,200.591,302.296,200.591z"/>
	<path style="fill:#FDD44B;" d="M225.466,151.304c-13.233,0-25.356,6.073-33.262,16.427c1.571,2.565,3.018,5.205,4.314,7.916
		c5.421-4.385,11.912-7.542,19.089-8.986c2.875-0.582,5.848-0.878,8.829-0.878c12.484,0,23.779,5.173,31.872,13.479
		c1.726-2.356,3.636-4.544,5.679-6.586C254.546,159.459,240.719,151.304,225.466,151.304z"/>
	<path style="fill:#FDD44B;" d="M145.506,210.526h14.664c-1.209-22.036-19.515-39.595-41.848-39.595
		c-22.333,0-40.639,17.559-41.848,39.595h14.663c1.182-13.965,12.919-24.969,27.185-24.969
		C132.587,185.557,144.324,196.56,145.506,210.526z"/>
	<path style="fill:#FDD44B;" d="M106.293,210.526h24.058c-1.088-5.651-6.065-9.935-12.028-9.935
		C112.358,200.591,107.381,204.875,106.293,210.526z"/>
	<g>
		<path style="fill:#FDD44B;" d="M327.738,179.586c0.277,0.213,0.554,0.426,0.826,0.646
			C328.292,180.012,328.016,179.799,327.738,179.586z"/>
		<path style="fill:#FDD44B;" d="M333.368,184.784c0.205,0.227,0.42,0.447,0.62,0.679
			C333.787,185.23,333.574,185.011,333.368,184.784z"/>
		<path style="fill:#FDD44B;" d="M331.611,182.954c-0.242-0.238-0.479-0.481-0.728-0.712
			C331.132,182.473,331.369,182.716,331.611,182.954z"/>
		<path style="fill:#FDD44B;" d="M321.381,175.548c0.252,0.13,0.498,0.269,0.748,0.404
			C321.879,175.818,321.633,175.678,321.381,175.548z"/>
		<path style="fill:#FDD44B;" d="M324.613,177.403c0.182,0.115,0.371,0.221,0.55,0.339
			C324.983,177.624,324.795,177.518,324.613,177.403z"/>
		<path style="fill:#FDD44B;" d="M317.64,173.861c0.259,0.103,0.52,0.204,0.777,0.311C318.16,174.064,317.9,173.963,317.64,173.861z
			"/>
		<path style="fill:#FDD44B;" d="M335.405,187.301c-7.095-5.509-15.993-8.829-25.652-8.829c-14.887,0-31.339,11.717-36.89,21.944
			c1.083,2.537,1.929,5.19,2.528,7.942c-0.12,0.717-0.218,1.438-0.28,2.172c1.182-13.965,12.919-24.91,27.185-24.91
			c14.265,0,26.002,12.028,27.184,25.028h14.664C343.664,202.648,340.457,193.82,335.405,187.301z"/>
		<path style="fill:#FDD44B;" d="M306.014,171.113c0.236,0.021,0.472,0.038,0.707,0.063
			C306.486,171.151,306.25,171.134,306.014,171.113z"/>
		<path style="fill:#FDD44B;" d="M314.141,172.645c0.087,0.026,0.178,0.046,0.265,0.072
			C314.318,172.69,314.228,172.671,314.141,172.645z"/>
		<path style="fill:#FDD44B;" d="M310.192,171.689c0.231,0.044,0.46,0.097,0.69,0.145
			C310.651,171.786,310.423,171.733,310.192,171.689z"/>
	</g>
	<g>
		<path style="fill:#FDD44B;" d="M154.494,151.007c0.469,0.274,0.93,0.56,1.393,0.844
			C155.424,151.567,154.964,151.281,154.494,151.007z"/>
		<path style="fill:#FDD44B;" d="M149.503,148.364c0.359,0.173,0.726,0.333,1.082,0.512
			C150.228,148.698,149.863,148.537,149.503,148.364z"/>
		<path style="fill:#FDD44B;" d="M144.79,146.296c0.458,0.181,0.912,0.372,1.366,0.563
			C145.702,146.668,145.25,146.477,144.79,146.296z"/>
		<path style="fill:#FDD44B;" d="M168.255,161.463c-0.406-0.395-0.826-0.772-1.241-1.157
			C167.428,160.691,167.849,161.068,168.255,161.463z"/>
		<path style="fill:#FDD44B;" d="M163.353,157.117c0.452,0.365,0.891,0.745,1.334,1.121
			C164.244,157.862,163.806,157.482,163.353,157.117z"/>
		<path style="fill:#FDD44B;" d="M158.667,153.653c0.417,0.283,0.84,0.556,1.25,0.849
			C159.507,154.209,159.084,153.936,158.667,153.653z"/>
		<path style="fill:#FDD44B;" d="M123.357,141.465c0.433,0.03,0.865,0.065,1.296,0.102
			C124.222,141.529,123.791,141.495,123.357,141.465z"/>
		<path style="fill:#FDD44B;" d="M185.649,188.502c-3.318-9.218-8.392-17.408-14.744-24.295
			c-12.4-10.019-28.124-15.834-45.03-15.834c-4.573,0-9.145,0.494-13.588,1.349c-30.475,5.851-53.345,29.926-57.34,60.926h6.483
			c1.224-31,26.267-54.629,56.891-54.629c30.625,0,55.668,23.629,56.892,54.629h4.705c0,0-0.005-0.208-0.005-0.282
			C179.913,202.521,181.988,194.998,185.649,188.502z"/>
		<path style="fill:#FDD44B;" d="M139.643,144.489c0.261,0.08,0.527,0.149,0.786,0.232
			C140.17,144.638,139.904,144.57,139.643,144.489z"/>
		<path style="fill:#FDD44B;" d="M129.218,142.098c0.133,0.02,0.268,0.032,0.4,0.053
			C129.486,142.13,129.351,142.118,129.218,142.098z"/>
		<path style="fill:#FDD44B;" d="M134.373,143.08c0.439,0.1,0.875,0.206,1.311,0.314C135.248,143.286,134.812,143.18,134.373,143.08
			z"/>
	</g>
	<g>
		<path style="fill:#FDD44B;" d="M260.808,130.946c0.528,0.3,1.053,0.604,1.574,0.917
			C261.861,131.55,261.337,131.246,260.808,130.946z"/>
		<path style="fill:#FDD44B;" d="M256.486,128.693c0.506,0.243,1.015,0.479,1.515,0.733
			C257.5,129.172,256.991,128.935,256.486,128.693z"/>
		<path style="fill:#FDD44B;" d="M265.123,133.589c0.513,0.341,1.013,0.702,1.516,1.056
			C266.135,134.29,265.636,133.93,265.123,133.589z"/>
		<path style="fill:#FDD44B;" d="M268.562,136.037c0.524,0.396,1.043,0.799,1.557,1.21
			C269.605,136.837,269.086,136.434,268.562,136.037z"/>
		<path style="fill:#FDD44B;" d="M271.898,138.724c0.492,0.42,0.988,0.836,1.469,1.27
			C272.886,139.56,272.391,139.144,271.898,138.724z"/>
		<path style="fill:#FDD44B;" d="M277.179,143.718c-0.608-0.637-1.228-1.261-1.858-1.874
			C275.951,142.457,276.57,143.081,277.179,143.718z"/>
		<path style="fill:#FDD44B;" d="M252.507,126.926c0.533,0.217,1.064,0.44,1.591,0.669
			C253.57,127.367,253.04,127.143,252.507,126.926z"/>
		<path style="fill:#FDD44B;" d="M229.91,121.794c0.467,0.028,0.929,0.074,1.393,0.112
			C230.839,121.868,230.377,121.822,229.91,121.794z"/>
		<path style="fill:#FDD44B;" d="M248.492,125.424c0.488,0.165,0.969,0.348,1.453,0.523
			C249.461,125.772,248.981,125.589,248.492,125.424z"/>
		<path style="fill:#FDD44B;" d="M278.846,145.519c-12.508-10.27-28.408-16.19-45.408-16.19c-17.506,0-34.354,6.384-47.44,17.976
			c-1.9,1.683-3.714,3.485-5.431,5.367c-0.57-0.59-1.179-1.141-1.765-1.715c1.432,1.401,2.849,2.82,4.178,4.318
			c-0.247-0.279-0.509-0.545-0.76-0.82c0.284,0.241,0.576,0.473,0.857,0.717c10.693-11.98,25.91-18.902,42.39-18.902
			c20.012,0,38.236,10.313,48.561,27.19c4.279-2.451,8.872-4.351,13.663-5.634C285.164,153.369,282.182,149.263,278.846,145.519z"/>
		<path style="fill:#FDD44B;" d="M172.382,145.211c1.709,1.371,3.348,2.825,4.948,4.317
			C175.73,148.035,174.091,146.582,172.382,145.211z"/>
		<path style="fill:#FDD44B;" d="M244.111,124.096c0.178,0.048,0.357,0.093,0.535,0.143
			C244.468,124.19,244.29,124.144,244.111,124.096z"/>
		<path style="fill:#FDD44B;" d="M238.838,122.914c0.469,0.088,0.941,0.169,1.407,0.266
			C239.779,123.082,239.307,123.002,238.838,122.914z"/>
		<path style="fill:#FDD44B;" d="M234.345,122.211c0.517,0.064,1.032,0.133,1.546,0.207
			C235.377,122.344,234.862,122.274,234.345,122.211z"/>
	</g>
	<g>
		<path style="fill:#CE593F;" d="M136.873,128.241c0.226,0.049,0.451,0.103,0.676,0.154
			C137.324,128.344,137.099,128.291,136.873,128.241z"/>
		<path style="fill:#CE593F;" d="M183.692,117.372c-3.695-1.906-7.786-3.094-12.091-3.421c-2.114-0.162-4.233-0.113-6.295,0.144
			c-10.081,1.243-18.559,7.099-23.374,15.412c6.189,1.749,12.166,4.175,17.842,7.284c2.565-2.982,5.342-5.817,8.283-8.422
			c5.293-4.688,11.102-8.654,17.271-11.882C184.778,116.773,184.236,117.073,183.692,117.372z"/>
	</g>
	<g>
		<path style="fill:#CE593F;" d="M224.435,180.818c1.148,0,2.276,0.082,3.39,0.21C226.71,180.9,225.583,180.818,224.435,180.818z"/>
		<path style="fill:#CE593F;" d="M241.52,186.316c0.742,0.531,1.461,1.092,2.149,1.687
			C242.98,187.408,242.262,186.847,241.52,186.316z"/>
		<path style="fill:#CE593F;" d="M246.627,190.95c0.579,0.663,1.125,1.353,1.644,2.066
			C247.751,192.303,247.206,191.613,246.627,190.95z"/>
		<path style="fill:#CE593F;" d="M246.039,190.303c-0.552-0.596-1.128-1.167-1.727-1.716
			C244.91,189.136,245.487,189.707,246.039,190.303z"/>
		<path style="fill:#CE593F;" d="M238.302,184.296c0.971,0.52,1.909,1.094,2.811,1.716
			C240.21,185.39,239.273,184.816,238.302,184.296z"/>
		<path style="fill:#CE593F;" d="M228.856,181.186c0.768,0.116,1.529,0.253,2.276,0.428
			C230.385,181.439,229.625,181.302,228.856,181.186z"/>
		<path style="fill:#CE593F;" d="M235.372,182.944c0.838,0.337,1.656,0.713,2.454,1.123
			C237.028,183.658,236.211,183.281,235.372,182.944z"/>
		<path style="fill:#CE593F;" d="M248.519,193.348c-4.658-3.083-10.234-4.884-16.226-4.884c-1.981,0-3.95,0.257-5.853,0.642
			c-11.2,2.255-19.881,11.543-22.677,21.543h50.153c0.001,0,0.006-0.208,0.006-0.282C253.922,204.053,251.91,198.15,248.519,193.348
			z"/>
		<path style="fill:#CE593F;" d="M232.248,181.901c0.727,0.201,1.441,0.43,2.144,0.683
			C233.688,182.331,232.975,182.102,232.248,181.901z"/>
	</g>
	<g>
		<path style="fill:#84BD93;" d="M58.566,270.796c-0.442-0.371-0.885-0.745-1.332-1.13
			C57.681,270.052,58.123,270.424,58.566,270.796z"/>
		<path style="fill:#84BD93;" d="M55.59,268.217c-0.348-0.31-0.694-0.61-1.044-0.929C54.896,267.608,55.241,267.907,55.59,268.217z"
			/>
		<path style="fill:#84BD93;" d="M61.279,273.014c-0.468-0.37-0.941-0.755-1.415-1.142
			C60.338,272.259,60.811,272.643,61.279,273.014z"/>
		<path style="fill:#84BD93;" d="M47.946,260.934c0.348,0.353,0.696,0.703,1.043,1.049
			C48.642,261.638,48.295,261.287,47.946,260.934z"/>
		<path style="fill:#84BD93;" d="M45.951,258.881c-0.309-0.322-0.617-0.64-0.927-0.968
			C45.334,258.241,45.642,258.559,45.951,258.881z"/>
		<path style="fill:#84BD93;" d="M51.884,264.81c-0.319-0.303-0.641-0.62-0.961-0.93C51.243,264.19,51.565,264.506,51.884,264.81z"
			/>
		<path style="fill:#84BD93;" d="M67.758,277.713c-1.753-1.152-3.558-2.447-5.407-3.87
			C64.201,275.268,66.004,276.559,67.758,277.713z"/>
		<path style="fill:#84BD93;" d="M366.074,233.425c0.495-0.695,0.997-1.394,1.459-2.059
			C367.07,232.032,366.569,232.731,366.074,233.425z"/>
		<path style="fill:#84BD93;" d="M363.579,236.851c0.56-0.755,1.121-1.508,1.647-2.236
			C364.7,235.342,364.138,236.097,363.579,236.851z"/>
		<path style="fill:#84BD93;" d="M70.091,279.188c-0.566-0.341-1.137-0.697-1.715-1.069
			C68.954,278.492,69.525,278.847,70.091,279.188z"/>
		<path style="fill:#84BD93;" d="M368.584,229.825c0.335-0.493,0.69-1.005,1.004-1.478
			C369.274,228.82,368.92,229.331,368.584,229.825z"/>
		<path style="fill:#84BD93;" d="M78.04,283.108c-2.332-0.859-4.821-2.073-7.442-3.619C73.22,281.038,75.708,282.249,78.04,283.108z
			"/>
		<path style="fill:#84BD93;" d="M39.077,236.648c4.629,8,12.471,18.716,22.544,29.8c5.728,6.303,11.295,11.484,16.562,15.902
			c2.695,0.979,5.191,1.298,7.42,1.298h219.755c10.373,0,26.229-10.985,43.503-29.993c5.347-5.884,10.04-12.007,13.983-17.007
			H39.077z"/>
	</g>
</g>
</svg>