<?xml version="1.0" encoding="iso-8859-1"?>
<!-- Uploaded to: SVG Repo, www.svgrepo.com, Generator: SVG Repo Mixer Tools -->
<svg height="800px" width="800px" version="1.1" id="Layer_1" xmlns="http://www.w3.org/2000/svg" xmlns:xlink="http://www.w3.org/1999/xlink" 
	 viewBox="0 0 351.589 351.589" xml:space="preserve">
<g>
	<g>
		<circle style="fill:#00783E;" cx="156.975" cy="132.434" r="66.331"/>
		<circle style="fill:#00783E;" cx="206.038" cy="141.173" r="66.331"/>
		<circle style="fill:#00783E;" cx="272.369" cy="151.19" r="66.331"/>
		<circle style="fill:#006132;" cx="116.004" cy="146.181" r="66.331"/>
		<circle style="fill:#00783E;" cx="70.255" cy="158.116" r="54.397"/>
		<circle style="fill:#006132;" cx="260.773" cy="164.082" r="55.889"/>
	</g>
	<g>
		<path style="fill:#E94F3D;" d="M45.833,85.262c-10.777,10.777-10.778,28.251,0,39.028c10.777,10.777,28.25,10.777,39.027,0
			L45.833,85.262z"/>
		<path style="fill:#FF8189;" d="M53.319,92.748c-6.643,6.643-6.643,17.413,0,24.056c6.643,6.643,17.411,6.643,24.054,0
			L53.319,92.748z"/>
	</g>
	<g>
		<path style="fill:#E94F3D;" d="M202.677,113.372c-10.777,10.777-10.778,28.25,0,39.028c10.777,10.777,28.249,10.777,39.027,0
			L202.677,113.372z"/>
		<path style="fill:#FF8189;" d="M210.163,120.858c-6.643,6.643-6.643,17.413,0,24.055c6.643,6.643,17.411,6.642,24.054,0
			L210.163,120.858z"/>
	</g>
	<g>
		<path style="fill:#E94F3D;" d="M279.977,120.502c10.777,10.777,28.251,10.778,39.028,0c10.776-10.778,10.776-28.25,0-39.028
			L279.977,120.502z"/>
		<path style="fill:#FF8189;" d="M287.463,113.016c6.644,6.643,17.412,6.643,24.056,0c6.643-6.643,6.643-17.411,0-24.054
			L287.463,113.016z"/>
	</g>
	<g>
		<path style="fill:#E94F3D;" d="M120.428,89.126c0,15.242,12.356,27.598,27.598,27.597c15.241,0,27.596-12.355,27.597-27.597
			H120.428z"/>
		<path style="fill:#FF8189;" d="M131.017,89.126c0,9.394,7.615,17.01,17.009,17.01c9.395,0,17.009-7.615,17.009-17.01H131.017z"/>
	</g>
	<path style="fill:#F2D383;" d="M351.589,146.181c0,76.936-62.369,139.305-139.305,139.305h-72.979
		C62.369,285.486,0,223.117,0,146.181H351.589z"/>
	<path style="fill:#D9A460;" d="M14.198,207.503c7.337,14.942,17.267,28.378,29.211,39.718H308.18
		c11.944-11.34,21.874-24.776,29.211-39.718H14.198z"/>
</g>
</svg>