<svg class="svg-icon" style="width: 1em; height: 1em;vertical-align: middle;fill: currentColor;overflow: hidden;" viewBox="0 0 1024 1024" version="1.1" xmlns="http://www.w3.org/2000/svg"><path d="M379.1 243.2L104.2 474.8l804.1-6.7-484-230.3c-15.1-7.2-32.8-5.1-45.2 5.4z" fill="#FFFFFF" /><path d="M396.4 261.4L121.5 492.9l790-15.2L441.7 256c-15.2-7.2-32.8-5.1-45.3 5.4z" fill="#FCD3AC" /><path d="M104.5 557.4l-0.3-82.6 804.1-6.7-3.2 73.9z" fill="#FCD3AC" /><path d="M104.2 486.8c-5 0-9.5-3.1-11.3-7.8-1.8-4.7-0.3-10.1 3.5-13.3l275-231.7c16-13.5 38.8-16.2 58.1-7l483.9 230.3c5 2.4 7.8 8 6.6 13.4-1.2 5.5-6 9.4-11.6 9.4l-804.1 6.7h-0.1z m301.5-241.2c-6.9 0-13.6 2.3-18.9 6.8L137.4 462.5l718.7-6-436.9-207.8c-4.3-2.1-8.9-3.1-13.5-3.1z m-26.6-2.4z"  /><path d="M123.4 569c-8.1 0-15.8-3.1-21.6-8.8-6-5.8-9.3-13.7-9.3-22l-0.2-44.5c-0.1-17 13.7-31 30.7-31.1l765.3-6.3h0.3c8.4 0 16.5 3.4 22.3 9.5 5.9 6.1 9 14.4 8.7 22.9l-1.6 36.1c-0.7 16.3-14 29.3-30.3 29.6L124 569h-0.6z m765.1-88.7s-0.1 0 0 0l-765.3 6.3c-3.8 0-6.9 3.2-6.9 7l0.2 44.5c0 1.9 0.8 3.6 2.1 5 1.3 1.3 3.1 2 5 2l763.5-14.7c3.7-0.1 6.7-3 6.8-6.7l1.6-36.1c0.1-2.6-1.2-4.3-2-5.1-0.8-0.9-2.4-2.2-5-2.2z"  /><path d="M106.8 616l-2.3-58.6L905.1 542l-2.1 59.8z" fill="#D63232" /><path d="M106.8 628c-6.4 0-11.7-5.1-12-11.5l-2.3-58.6c-0.1-3.2 1-6.4 3.3-8.7 2.2-2.3 5.3-3.7 8.5-3.8L904.9 530c3.3 0 6.5 1.2 8.8 3.6 2.3 2.3 3.6 5.5 3.4 8.8l-2.1 59.8c-0.2 6.4-5.4 11.5-11.8 11.6L107.1 628h-0.3z m10.2-58.8l1.4 34.7 773-13.9 1.2-35.8-775.6 15z"  /><path d="M106.8 628c-6.4 0-11.7-5.1-12-11.5l-2.3-58.6c-0.1-3.2 1-6.4 3.3-8.7 2.2-2.3 5.3-3.7 8.5-3.8L904.9 530c3.3 0 6.5 1.2 8.8 3.6 2.3 2.3 3.6 5.5 3.4 8.8l-2.1 59.8c-0.2 6.4-5.4 11.5-11.8 11.6L107.1 628h-0.3z m10.2-58.8l1.4 34.7 773-13.9 1.2-35.8-775.6 15z"  /><path d="M109.6 631.7l0.9 111.2c0.2 13.1 10.9 23.8 23.7 23.7l745.2-7.8c12.2-0.1 22-10.1 22.1-22.7l0.9-125.3" fill="#FCD3AC" /><path d="M108.2 615.7c-5.3 0.1-10.4 1.2-15.2 3.3-10.1 4.4-25.7 13.2-25.4 25.1 0.8 28.7 31.9 51.3 102.1 31.2s107.1-6.2 125.3 2.3c18.2 8.5 96.6 11.6 125.2-12.8 31.4-26.8 84.4 4.4 102.8 11.4s85.1-0.2 109.3-19.3 85.1 27.1 116.4 35c31.4 8 70.8-27.1 83.8-34.2 13-7.1 70 6.9 91.4 15.4 16.8 6.7 63.6-54.7-23.7-71.4l-792 14z" fill="#53AA44" /><path d="M758.5 705.1c-4.3 0-8.5-0.5-12.7-1.6-11.7-3-26-10.1-41.1-17.7-14.3-7.2-29.1-14.6-41.9-18.6-11.3-3.5-19.2-3.8-23-0.9-27.8 21.9-98.7 29.5-121 21.1-3.2-1.2-7-2.9-11.4-4.9-21.9-9.8-58.6-26.3-79.4-8.6-18.6 15.9-50.4 20.5-73.8 21.6-26.3 1.3-52.8-1.6-64.4-7.1-20-9.3-53.9-19.7-116.9-1.6-54.1 15.5-82.9 6-97.6-4.7-12.3-9-19.4-22.4-19.8-37.7-0.3-10 5.1-24.4 32.5-36.4 6.3-2.8 12.9-4.2 19.9-4.3l792-14c0.8 0 1.7 0.1 2.5 0.2 49.3 9.4 60.3 30.4 60.9 46.4 0.4 10.9-4.3 22.6-13.2 33-7.3 8.5-16.5 15.1-24.1 17.1-15.9 4.3-37.8-3-59-10-9.9-3.3-24.6-8.2-29.4-7.8-2.2 1.3-5.6 3.6-9.1 6.1-16.9 11.8-43.6 30.4-70 30.4z m-111.2-64.9c20 0 44.4 12.2 68.1 24.1 13.9 7 27.1 13.6 36.3 15.9 19.7 5 47.9-14.7 63.1-25.3 4.9-3.4 8.8-6.1 12-7.9 10.7-5.9 26.3-0.7 47.8 6.4 15.3 5.1 36.2 12 45.2 9.6 5.6-1.5 20-14.8 19.6-26-0.4-10-15-18.5-40.2-23.5l-790.7 14c-3.7 0.1-7.3 0.8-10.6 2.3-13.9 6.1-18.3 11.9-18.2 13.8 0.2 7.9 3.6 14.3 10 19 8.4 6.2 29.6 14.5 76.8 1 70.7-20.3 110.2-8 133.7 3 5.8 2.7 26.6 6.1 53.1 4.8 27.4-1.3 49-7.1 59.3-15.9 32.4-27.6 79.5-6.4 104.8 4.9 4 1.8 7.5 3.4 10 4.3 14.4 5.4 76.4-0.8 97.7-17.5 6.3-4.9 13.9-7 22.2-7z m-539.1-24.5z"  /><path d="M133.9 778.5c-19.2 0-35.1-15.8-35.4-35.5l-1.1-52.9c-0.1-6.6 5.1-12.1 11.7-12.3 6.6-0.2 12.1 5.1 12.3 11.7l1.1 52.9c0.1 6.5 5.4 11.9 11.5 11.9h0.1l745.2-7.8c5.7-0.1 10.1-4.8 10.2-10.8l0.6-55.4c0.1-6.6 5.4-11.9 12-11.9h0.1c6.6 0.1 11.9 5.5 11.9 12.1l-0.6 55.4c-0.2 19.2-15.1 34.4-33.9 34.6l-745.2 7.8c-0.3 0.2-0.4 0.2-0.5 0.2zM417.4 337.1c-3.2 0-6.4-1.5-8.3-4.4a9.99 9.99 0 0 1 2.7-13.9c7.7-5.2 13.7-6.9 26.6-9.8 5.4-1.2 10.7 2.2 12 7.6 1.2 5.4-2.2 10.7-7.6 12-12.3 2.8-15.2 3.8-19.8 6.9-1.7 1-3.6 1.6-5.6 1.6zM275.3 447.4c-1.8 0-3.5-0.5-5.2-1.4-4.7-2.9-6.3-9-3.4-13.7 1.6-2.6 39.5-64.7 107-95.9 5-2.3 11-0.1 13.3 4.9 2.3 5 0.1 11-4.9 13.3-61.8 28.6-97.9 87.5-98.3 88.1-1.8 3-5.1 4.7-8.5 4.7zM905.1 613.7h-0.3c-6.6-0.2-11.9-5.7-11.7-12.3l3.2-133.6c0.2-6.5 5.5-11.7 12-11.7h0.3c6.6 0.2 11.9 5.7 11.7 12.3L917.1 602c-0.2 6.5-5.5 11.7-12 11.7z"  /><path d="M104.9 613.7c-6.6 0-12-5.3-12-11.9l-0.7-126.9c0-6.6 5.3-12 11.9-12.1h0.1c6.6 0 12 5.3 12 11.9l0.7 126.9c0 6.7-5.3 12.1-12 12.1z"  /></svg>