<svg width="9" height="14" viewBox="0 0 9 14" fill="none" xmlns="http://www.w3.org/2000/svg">
<path d="M8.49996 7C8.50098 7.17547 8.46734 7.34942 8.40099 7.51187C8.33464 7.67432 8.23687 7.82208 8.11329 7.94666L2.77996 13.28C2.52889 13.5311 2.18836 13.6721 1.8333 13.6721C1.47823 13.6721 1.1377 13.5311 0.886628 13.28C0.635557 13.0289 0.494507 12.6884 0.494507 12.3333C0.494507 11.9783 0.635557 11.6377 0.886628 11.3867L5.28663 7L0.899962 2.61333C0.681526 2.35826 0.567384 2.03016 0.580346 1.69459C0.593307 1.35902 0.732418 1.04071 0.969877 0.803246C1.20734 0.565787 1.52566 0.426679 1.86122 0.413717C2.19679 0.400756 2.52489 0.514895 2.77996 0.733331L8.11329 6.06666C8.35962 6.31501 8.49849 6.65021 8.49996 7Z" fill="#2E2E2E"/>
</svg>
