<svg width="29" height="29" viewBox="0 0 29 29" fill="none" xmlns="http://www.w3.org/2000/svg">
<path d="M27.7933 19.0883L26.5 19.735L25.2067 19.0883C25.0908 19.0303 24.9629 19 24.8333 19C24.7037 19 24.5759 19.0303 24.46 19.0883L23.1667 19.735L22.3333 19.3183V1.49999C22.3333 1.35789 22.297 1.21814 22.2277 1.09404C22.1585 0.969936 22.0587 0.8656 21.9378 0.790945C21.8169 0.71629 21.6789 0.673797 21.5369 0.667505C21.3949 0.661212 21.2537 0.691329 21.1267 0.754992L19.8333 1.40166L18.54 0.754992C18.4241 0.696923 18.2963 0.666687 18.1667 0.666687C18.037 0.666687 17.9092 0.696923 17.7933 0.754992L16.5 1.40166L15.2067 0.754992C15.0908 0.696923 14.9629 0.666687 14.8333 0.666687C14.7037 0.666687 14.5759 0.696923 14.46 0.754992L13.1667 1.40166L11.8733 0.754992C11.7574 0.696923 11.6296 0.666687 11.5 0.666687C11.3704 0.666687 11.2425 0.696923 11.1267 0.754992L9.83333 1.40166L8.54 0.754992C8.42411 0.696923 8.29628 0.666687 8.16666 0.666687C8.03705 0.666687 7.90921 0.696923 7.79333 0.754992L6.5 1.40166L5.20666 0.754992C5.09078 0.696923 4.96295 0.666687 4.83333 0.666687C4.70371 0.666687 4.57588 0.696923 4.46 0.754992L3.16666 1.40166L1.87333 0.754992C1.74628 0.691329 1.60506 0.661212 1.4631 0.667505C1.32113 0.673797 1.18313 0.71629 1.06221 0.790945C0.941294 0.8656 0.841477 0.969936 0.772245 1.09404C0.703014 1.21814 0.666669 1.35789 0.666664 1.49999V24.8333C0.666664 25.9384 1.10565 26.9982 1.88705 27.7796C2.66845 28.561 3.72826 29 4.83333 29H24.8333C25.9384 29 26.9982 28.561 27.7796 27.7796C28.561 26.9982 29 25.9384 29 24.8333V19.8333C29 19.6912 28.9636 19.5515 28.8944 19.4274C28.8252 19.3033 28.7254 19.1989 28.6044 19.1243C28.4835 19.0496 28.3455 19.0071 28.2036 19.0008C28.0616 18.9945 27.9204 19.0247 27.7933 19.0883ZM11.5 10.6667C11.4972 11.4035 11.2504 12.1187 10.7981 12.7004C10.3458 13.282 9.71345 13.6975 9 13.8817V21.5C9 21.721 8.9122 21.933 8.75592 22.0892C8.59964 22.2455 8.38768 22.3333 8.16666 22.3333C7.94565 22.3333 7.73369 22.2455 7.57741 22.0892C7.42113 21.933 7.33333 21.721 7.33333 21.5V13.8817C6.61988 13.6975 5.98757 13.282 5.53525 12.7004C5.08293 12.1187 4.83609 11.4035 4.83333 10.6667V8.16666C4.83333 7.94565 4.92113 7.73368 5.07741 7.5774C5.23369 7.42112 5.44565 7.33333 5.66666 7.33333C5.88768 7.33333 6.09964 7.42112 6.25592 7.5774C6.4122 7.73368 6.5 7.94565 6.5 8.16666V10.6667C6.50331 10.9541 6.58203 11.2356 6.72827 11.483C6.87451 11.7304 7.08315 11.9352 7.33333 12.0767V8.16666C7.33333 7.94565 7.42113 7.73368 7.57741 7.5774C7.73369 7.42112 7.94565 7.33333 8.16666 7.33333C8.38768 7.33333 8.59964 7.42112 8.75592 7.5774C8.9122 7.73368 9 7.94565 9 8.16666V12.0767C9.25018 11.9352 9.45882 11.7304 9.60506 11.483C9.7513 11.2356 9.83002 10.9541 9.83333 10.6667V8.16666C9.83333 7.94565 9.92113 7.73368 10.0774 7.5774C10.2337 7.42112 10.4457 7.33333 10.6667 7.33333C10.8877 7.33333 11.0996 7.42112 11.2559 7.5774C11.4122 7.73368 11.5 7.94565 11.5 8.16666V10.6667ZM17.2583 17.3783L14.8333 17.985V21.5C14.8333 21.721 14.7455 21.933 14.5893 22.0892C14.433 22.2455 14.221 22.3333 14 22.3333C13.779 22.3333 13.567 22.2455 13.4107 22.0892C13.2545 21.933 13.1667 21.721 13.1667 21.5V8.16666C13.1664 8.00162 13.2151 7.84022 13.3066 7.7029C13.3982 7.56559 13.5284 7.45855 13.6809 7.39535C13.8333 7.33216 14.0011 7.31565 14.163 7.34793C14.3248 7.38021 14.4734 7.45981 14.59 7.57666C15.7276 8.70824 16.6295 10.0542 17.2435 11.5367C17.8574 13.0192 18.1712 14.6087 18.1667 16.2133C18.1672 16.4811 18.078 16.7413 17.9134 16.9524C17.7487 17.1636 17.5181 17.3135 17.2583 17.3783ZM27.3333 24.8333C27.3333 25.4964 27.0699 26.1322 26.6011 26.6011C26.1323 27.0699 25.4964 27.3333 24.8333 27.3333C24.1703 27.3333 23.5344 27.0699 23.0656 26.6011C22.5967 26.1322 22.3333 25.4964 22.3333 24.8333V21.1817L22.7933 21.4117C22.9092 21.4697 23.037 21.5 23.1667 21.5C23.2963 21.5 23.4241 21.4697 23.54 21.4117L24.8333 20.765L26.1267 21.4117C26.2425 21.4697 26.3704 21.5 26.5 21.5C26.6296 21.5 26.7574 21.4697 26.8733 21.4117L27.3333 21.1817V24.8333Z" fill="#A098AE"/>
</svg>
