<svg width="24" height="18" viewBox="0 0 24 18" fill="none" xmlns="http://www.w3.org/2000/svg">
<path d="M22.4334 2.62667C22.049 2.54828 21.6962 2.3586 21.4188 2.08122C21.1414 1.80384 20.9518 1.45102 20.8734 1.06667C20.8119 0.765503 20.6483 0.494828 20.4101 0.300452C20.172 0.106076 19.8741 -6.27068e-05 19.5667 2.77942e-08H7.50004V1.33333C7.50004 1.51014 7.4298 1.67971 7.30478 1.80474C7.17975 1.92976 7.01018 2 6.83337 2C6.65656 2 6.48699 1.92976 6.36197 1.80474C6.23694 1.67971 6.16671 1.51014 6.16671 1.33333V2.77942e-08H4.76671C4.45933 -6.27068e-05 4.16138 0.106076 3.92327 0.300452C3.68516 0.494828 3.52152 0.765503 3.46004 1.06667C3.38165 1.45102 3.19197 1.80384 2.91459 2.08122C2.63722 2.3586 2.2844 2.54828 1.90004 2.62667C1.59888 2.68814 1.3282 2.85178 1.13383 3.08989C0.93945 3.328 0.833311 3.62596 0.833374 3.93333V13.4C0.833311 13.7074 0.93945 14.0053 1.13383 14.2434C1.3282 14.4816 1.59888 14.6452 1.90004 14.7067C2.2844 14.7851 2.63722 14.9747 2.91459 15.2521C3.19197 15.5295 3.38165 15.8823 3.46004 16.2667C3.52152 16.5678 3.68516 16.8385 3.92327 17.0329C4.16138 17.2273 4.45933 17.3334 4.76671 17.3333H6.16671V16C6.16671 15.8232 6.23694 15.6536 6.36197 15.5286C6.48699 15.4036 6.65656 15.3333 6.83337 15.3333C7.01018 15.3333 7.17975 15.4036 7.30478 15.5286C7.4298 15.6536 7.50004 15.8232 7.50004 16V17.3333H19.5667C19.8741 17.3334 20.172 17.2273 20.4101 17.0329C20.6483 16.8385 20.8119 16.5678 20.8734 16.2667C20.9518 15.8823 21.1414 15.5295 21.4188 15.2521C21.6962 14.9747 22.049 14.7851 22.4334 14.7067C22.7345 14.6452 23.0052 14.4816 23.1996 14.2434C23.394 14.0053 23.5001 13.7074 23.5 13.4V3.93333C23.5001 3.62596 23.394 3.328 23.1996 3.08989C23.0052 2.85178 22.7345 2.68814 22.4334 2.62667ZM7.50004 13.4333C7.50004 13.6101 7.4298 13.7797 7.30478 13.9047C7.17975 14.0298 7.01018 14.1 6.83337 14.1C6.65656 14.1 6.48699 14.0298 6.36197 13.9047C6.23694 13.7797 6.16671 13.6101 6.16671 13.4333V11.9667C6.16671 11.7899 6.23694 11.6203 6.36197 11.4953C6.48699 11.3702 6.65656 11.3 6.83337 11.3C7.01018 11.3 7.17975 11.3702 7.30478 11.4953C7.4298 11.6203 7.50004 11.7899 7.50004 11.9667V13.4333ZM7.50004 9.4C7.50004 9.57681 7.4298 9.74638 7.30478 9.8714C7.17975 9.99643 7.01018 10.0667 6.83337 10.0667C6.65656 10.0667 6.48699 9.99643 6.36197 9.8714C6.23694 9.74638 6.16671 9.57681 6.16671 9.4V7.93333C6.16671 7.75652 6.23694 7.58695 6.36197 7.46193C6.48699 7.33691 6.65656 7.26667 6.83337 7.26667C7.01018 7.26667 7.17975 7.33691 7.30478 7.46193C7.4298 7.58695 7.50004 7.75652 7.50004 7.93333V9.4ZM7.50004 5.36533C7.50004 5.54214 7.4298 5.71171 7.30478 5.83674C7.17975 5.96176 7.01018 6.032 6.83337 6.032C6.65656 6.032 6.48699 5.96176 6.36197 5.83674C6.23694 5.71171 6.16671 5.54214 6.16671 5.36533V3.89867C6.16671 3.72186 6.23694 3.55229 6.36197 3.42726C6.48699 3.30224 6.65656 3.232 6.83337 3.232C7.01018 3.232 7.17975 3.30224 7.30478 3.42726C7.4298 3.55229 7.50004 3.72186 7.50004 3.89867V5.36533ZM14.8334 6C14.8312 6.58948 14.6337 7.16161 14.2718 7.62695C13.91 8.0923 13.4041 8.42463 12.8334 8.572V13.3333C12.8334 13.5101 12.7631 13.6797 12.6381 13.8047C12.5131 13.9298 12.3435 14 12.1667 14C11.9899 14 11.8203 13.9298 11.6953 13.8047C11.5703 13.6797 11.5 13.5101 11.5 13.3333V8.572C10.9293 8.42463 10.4234 8.0923 10.0616 7.62695C9.69972 7.16161 9.50225 6.58948 9.50004 6V4C9.50004 3.82319 9.57028 3.65362 9.6953 3.52859C9.82033 3.40357 9.9899 3.33333 10.1667 3.33333C10.3435 3.33333 10.5131 3.40357 10.6381 3.52859C10.7631 3.65362 10.8334 3.82319 10.8334 4V6C10.836 6.22993 10.899 6.45512 11.016 6.65308C11.133 6.85103 11.2999 7.0148 11.5 7.128V4C11.5 3.82319 11.5703 3.65362 11.6953 3.52859C11.8203 3.40357 11.9899 3.33333 12.1667 3.33333C12.3435 3.33333 12.5131 3.40357 12.6381 3.52859C12.7631 3.65362 12.8334 3.82319 12.8334 4V7.128C13.0335 7.0148 13.2004 6.85103 13.3174 6.65308C13.4344 6.45512 13.4974 6.22993 13.5 6V4C13.5 3.82319 13.5703 3.65362 13.6953 3.52859C13.8203 3.40357 13.9899 3.33333 14.1667 3.33333C14.3435 3.33333 14.5131 3.40357 14.6381 3.52859C14.7631 3.65362 14.8334 3.82319 14.8334 4V6ZM19.416 10.7867L17.5 11.7453V13.3333C17.5 13.5101 17.4298 13.6797 17.3048 13.8047C17.1798 13.9298 17.0102 14 16.8334 14C16.6566 14 16.487 13.9298 16.362 13.8047C16.2369 13.6797 16.1667 13.5101 16.1667 13.3333V4C16.1665 3.86797 16.2054 3.73885 16.2787 3.629C16.3519 3.51914 16.4561 3.43351 16.5781 3.38295C16.7001 3.3324 16.8343 3.31919 16.9638 3.34502C17.0932 3.37084 17.2121 3.43452 17.3054 3.528C18.9809 5.0914 19.9991 7.23356 20.1534 9.52C20.1676 9.78007 20.1054 10.0386 19.9744 10.2637C19.8433 10.4888 19.6492 10.6706 19.416 10.7867Z" fill="white"/>
</svg>
