<svg width="26" height="29" viewBox="0 0 26 29" fill="none" xmlns="http://www.w3.org/2000/svg">
<path d="M0.333336 24.8333C0.333336 27.6967 6.81334 29 12.8333 29C18.8533 29 25.3333 27.6967 25.3333 24.8333C25.3333 22.56 21.3983 21.5333 18.5633 21.09L20.5 19.1667C22.0152 17.6516 23.047 15.7213 23.4651 13.6198C23.8832 11.5183 23.6687 9.34008 22.8488 7.36049C22.0289 5.3809 20.6403 3.68892 18.8588 2.49849C17.0772 1.30807 14.9827 0.672684 12.84 0.672684C10.6973 0.672684 8.60278 1.30807 6.82123 2.49849C5.03968 3.68892 3.65114 5.3809 2.83122 7.36049C2.0113 9.34008 1.79681 11.5183 2.2149 13.6198C2.63298 15.7213 3.66484 17.6516 5.18 19.1667L7.11 21.0967C4.26834 21.5333 0.333336 22.56 0.333336 24.8333ZM14.5 7.33333C14.5 7.17857 14.5431 7.02687 14.6245 6.89522C14.7058 6.76357 14.8222 6.65719 14.9607 6.58797C15.0991 6.51876 15.254 6.48947 15.4082 6.50336C15.5623 6.51726 15.7095 6.57381 15.8333 6.66666C16.8653 7.44089 17.7222 8.42422 18.348 9.55235C18.9738 10.6805 19.3544 11.928 19.465 13.2133C19.5016 13.6082 19.3952 14.0031 19.1652 14.3261C18.9351 14.6491 18.5968 14.8788 18.2117 14.9733L16.1667 15.485V17.3333C16.1667 17.5543 16.0789 17.7663 15.9226 17.9226C15.7663 18.0789 15.5543 18.1667 15.3333 18.1667C15.1123 18.1667 14.9004 18.0789 14.7441 17.9226C14.5878 17.7663 14.5 17.5543 14.5 17.3333V7.33333ZM7 9V7.33333C7 7.11232 7.0878 6.90035 7.24408 6.74407C7.40036 6.58779 7.61232 6.5 7.83334 6.5C8.05435 6.5 8.26631 6.58779 8.42259 6.74407C8.57887 6.90035 8.66667 7.11232 8.66667 7.33333V9C8.66998 9.2874 8.7487 9.5689 8.89494 9.81634C9.04118 10.0638 9.24982 10.2685 9.5 10.41V7.33333C9.5 7.11232 9.5878 6.90035 9.74408 6.74407C9.90036 6.58779 10.1123 6.5 10.3333 6.5C10.5543 6.5 10.7663 6.58779 10.9226 6.74407C11.0789 6.90035 11.1667 7.11232 11.1667 7.33333V10.41C11.4168 10.2685 11.6255 10.0638 11.7717 9.81634C11.918 9.5689 11.9967 9.2874 12 9V7.33333C12 7.11232 12.0878 6.90035 12.2441 6.74407C12.4004 6.58779 12.6123 6.5 12.8333 6.5C13.0543 6.5 13.2663 6.58779 13.4226 6.74407C13.5789 6.90035 13.6667 7.11232 13.6667 7.33333V9C13.6639 9.73684 13.4171 10.452 12.9648 11.0337C12.5124 11.6154 11.8801 12.0308 11.1667 12.215V17.3333C11.1667 17.5543 11.0789 17.7663 10.9226 17.9226C10.7663 18.0789 10.5543 18.1667 10.3333 18.1667C10.1123 18.1667 9.90036 18.0789 9.74408 17.9226C9.5878 17.7663 9.5 17.5543 9.5 17.3333V12.215C8.78655 12.0308 8.15424 11.6154 7.70192 11.0337C7.2496 10.452 7.00276 9.73684 7 9ZM8.59 22.5767L11.065 25.0533C11.2972 25.2856 11.5728 25.4699 11.8763 25.5957C12.1797 25.7214 12.5049 25.7861 12.8333 25.7861C13.1618 25.7861 13.487 25.7214 13.7904 25.5957C14.0938 25.4699 14.3695 25.2856 14.6017 25.0533L17.0767 22.5767C21.6567 23.1067 23.6667 24.3133 23.6667 24.8333C23.6667 25.58 19.9817 27.3333 12.8333 27.3333C5.685 27.3333 2 25.58 2 24.8333C2 24.3133 4.01 23.1067 8.59 22.5767Z" fill="#A098AE"/>
</svg>
