<svg width="29" height="24" viewBox="0 0 29 24" fill="none" xmlns="http://www.w3.org/2000/svg">
<path d="M0.666664 18.1667C0.666664 18.8297 0.930056 19.4656 1.3989 19.9344C1.86774 20.4033 2.50362 20.6667 3.16666 20.6667H4.085C4.27626 21.6086 4.78727 22.4554 5.53145 23.0637C6.27563 23.6719 7.2072 24.0042 8.16833 24.0042C9.12946 24.0042 10.061 23.6719 10.8052 23.0637C11.5494 22.4554 12.0604 21.6086 12.2517 20.6667H17.5C18.6309 20.6588 19.7349 20.3211 20.6767 19.695C20.6767 19.7417 20.6633 19.7867 20.6633 19.8333C20.6627 20.7299 20.9514 21.6028 21.4864 22.3223C22.0214 23.0418 22.7742 23.5695 23.6329 23.8271C24.4917 24.0846 25.4107 24.0583 26.2534 23.7521C27.096 23.4458 27.8174 22.8759 28.3104 22.127C28.8033 21.378 29.0415 20.4901 28.9897 19.595C28.9378 18.6999 28.5986 17.8455 28.0225 17.1585C27.4463 16.4715 26.6639 15.9888 25.7915 15.7818C24.9191 15.5749 24.0033 15.655 23.18 16.01C23.3206 15.387 23.3566 14.7449 23.2867 14.11L22.6417 8.94334C22.8141 8.98107 22.9901 9.00007 23.1667 9.00001H24C24.442 9.00001 24.8659 8.82441 25.1785 8.51185C25.4911 8.19929 25.6667 7.77537 25.6667 7.33334V5.66667C25.6667 5.22464 25.4911 4.80072 25.1785 4.48816C24.8659 4.1756 24.442 4.00001 24 4.00001H23.1667C22.7805 4.00181 22.4 4.09304 22.0551 4.26654C21.7101 4.44003 21.41 4.69109 21.1783 5.00001L20.91 4.73167C20.4402 4.265 19.8055 4.00214 19.1433 4.00001H18.1667C17.9457 4.00001 17.7337 4.0878 17.5774 4.24408C17.4211 4.40036 17.3333 4.61232 17.3333 4.83334C17.3333 5.05435 17.4211 5.26631 17.5774 5.4226C17.7337 5.57888 17.9457 5.66667 18.1667 5.66667H19.1433C19.3639 5.66672 19.5755 5.75422 19.7317 5.91001L20.705 6.88334C20.73 7.03834 21.3283 11.8467 21.6367 14.3167C21.7099 14.9031 21.6576 15.4984 21.4832 16.063C21.3088 16.6277 21.0163 17.1488 20.6251 17.5917C20.2338 18.0346 19.7528 18.3893 19.214 18.6321C18.6753 18.8749 18.091 19.0003 17.5 19H17.1833L15.6667 11.4183V9.83334C15.6667 9.1703 15.4033 8.53441 14.9344 8.06557C14.4656 7.59673 13.8297 7.33334 13.1667 7.33334H9.83333V3.16667C9.83333 2.50363 9.56994 1.86775 9.1011 1.3989C8.63226 0.930064 7.99637 0.666672 7.33333 0.666672H3.16666C2.50362 0.666672 1.86774 0.930064 1.3989 1.3989C0.930056 1.86775 0.666664 2.50363 0.666664 3.16667V9.83334C0.666664 10.4964 0.930056 11.1323 1.3989 11.6011C1.86774 12.0699 2.50362 12.3333 3.16666 12.3333H3.51C2.62733 13.0287 1.91316 13.9145 1.42081 14.9246C0.928464 15.9347 0.670666 17.043 0.666664 18.1667ZM24.8333 17.3333C25.3278 17.3333 25.8111 17.48 26.2223 17.7547C26.6334 18.0294 26.9538 18.4198 27.143 18.8766C27.3322 19.3334 27.3818 19.8361 27.2853 20.3211C27.1888 20.806 26.9507 21.2515 26.6011 21.6011C26.2515 21.9507 25.806 22.1888 25.3211 22.2853C24.8361 22.3818 24.3334 22.3323 23.8766 22.143C23.4198 21.9538 23.0294 21.6334 22.7547 21.2223C22.48 20.8111 22.3333 20.3278 22.3333 19.8333C22.3333 19.1703 22.5967 18.5344 23.0656 18.0656C23.5344 17.5967 24.1703 17.3333 24.8333 17.3333ZM9.83333 9.00001H13.1667C13.3877 9.00001 13.5996 9.0878 13.7559 9.24408C13.9122 9.40036 14 9.61232 14 9.83334V10.6667H9.83333V9.00001ZM10.5133 20.6667C10.3436 21.1538 10.0265 21.576 9.60604 21.8748C9.18555 22.1736 8.6825 22.3341 8.16666 22.3341C7.65083 22.3341 7.14778 22.1736 6.72728 21.8748C6.30679 21.576 5.9897 21.1538 5.82 20.6667H10.5133ZM2.33333 3.16667C2.33333 2.94566 2.42113 2.7337 2.57741 2.57742C2.73369 2.42114 2.94565 2.33334 3.16666 2.33334H7.33333C7.55434 2.33334 7.76631 2.42114 7.92259 2.57742C8.07887 2.7337 8.16666 2.94566 8.16666 3.16667V4.00001H2.33333V3.16667ZM2.33333 5.66667H8.16666V7.30834H2.33333V5.66667ZM3.16666 10.6667C2.94565 10.6667 2.73369 10.5789 2.57741 10.4226C2.42113 10.2663 2.33333 10.0544 2.33333 9.83334V8.97501H8.16666V10.6667H3.16666Z" fill="#A098AE"/>
</svg>
