<svg width="29" height="25" viewBox="0 0 29 25" fill="none" xmlns="http://www.w3.org/2000/svg">
<path d="M26.5 6.66667H25.6667V2.5C25.6667 1.83696 25.4033 1.20107 24.9344 0.732233C24.4656 0.263392 23.8297 0 23.1667 0H3.16666C2.50362 0 1.86774 0.263392 1.3989 0.732233C0.930056 1.20107 0.666664 1.83696 0.666664 2.5V15.8333C0.666664 16.4964 0.930056 17.1323 1.3989 17.6011C1.86774 18.0699 2.50362 18.3333 3.16666 18.3333H4V19.8333C4.00068 20.0802 4.07433 20.3213 4.21171 20.5264C4.34908 20.7315 4.54403 20.8914 4.77205 20.986C5.00006 21.0806 5.25095 21.1057 5.49317 21.058C5.73539 21.0104 5.95811 20.8922 6.13333 20.7183L8.51166 18.3333H10.6667V19.1667C10.6667 19.8297 10.9301 20.4656 11.3989 20.9344C11.8677 21.4033 12.5036 21.6667 13.1667 21.6667H21.155L23.5333 24.045C23.7078 24.2193 23.93 24.3381 24.1719 24.3864C24.4137 24.4347 24.6645 24.4103 24.8926 24.3164C25.1206 24.2225 25.3158 24.0633 25.4536 23.8587C25.5913 23.6541 25.6655 23.4133 25.6667 23.1667V21.6667H26.5C27.163 21.6667 27.7989 21.4033 28.2678 20.9344C28.7366 20.4656 29 19.8297 29 19.1667V9.16667C29 8.50363 28.7366 7.86774 28.2678 7.3989C27.7989 6.93006 27.163 6.66667 26.5 6.66667ZM24 15.8333C24 16.0543 23.9122 16.2663 23.7559 16.4226C23.5996 16.5789 23.3877 16.6667 23.1667 16.6667H8.16666C8.05716 16.6665 7.94868 16.6879 7.84745 16.7296C7.74621 16.7714 7.6542 16.8327 7.57666 16.91L5.66666 18.8217V17.5C5.66666 17.279 5.57887 17.067 5.42259 16.9107C5.26631 16.7545 5.05434 16.6667 4.83333 16.6667H3.16666C2.94565 16.6667 2.73369 16.5789 2.57741 16.4226C2.42113 16.2663 2.33333 16.0543 2.33333 15.8333V2.5C2.33333 2.27899 2.42113 2.06702 2.57741 1.91074C2.73369 1.75446 2.94565 1.66667 3.16666 1.66667H23.1667C23.3877 1.66667 23.5996 1.75446 23.7559 1.91074C23.9122 2.06702 24 2.27899 24 2.5V15.8333Z" fill="#A098AE"/>
<path d="M12.3333 4.16667C12.1123 4.16667 11.9004 4.25446 11.7441 4.41074C11.5878 4.56702 11.5 4.77899 11.5 5V6.66667C11.4963 6.954 11.4175 7.23537 11.2713 7.48275C11.1251 7.73014 10.9166 7.9349 10.6667 8.07667V5C10.6667 4.77899 10.5789 4.56702 10.4226 4.41074C10.2663 4.25446 10.0543 4.16667 9.83333 4.16667C9.61232 4.16667 9.40035 4.25446 9.24407 4.41074C9.08779 4.56702 9 4.77899 9 5V8.07667C8.75004 7.9349 8.54158 7.73014 8.39537 7.48275C8.24917 7.23537 8.17031 6.954 8.16666 6.66667V5C8.16666 4.77899 8.07887 4.56702 7.92259 4.41074C7.76631 4.25446 7.55434 4.16667 7.33333 4.16667C7.11232 4.16667 6.90036 4.25446 6.74407 4.41074C6.58779 4.56702 6.5 4.77899 6.5 5V6.66667C6.50276 7.40351 6.74959 8.11868 7.20191 8.70036C7.65423 9.28204 8.28654 9.69746 9 9.88167V13.3333C9 13.5543 9.08779 13.7663 9.24407 13.9226C9.40035 14.0789 9.61232 14.1667 9.83333 14.1667C10.0543 14.1667 10.2663 14.0789 10.4226 13.9226C10.5789 13.7663 10.6667 13.5543 10.6667 13.3333V9.88167C11.3801 9.69746 12.0124 9.28204 12.4647 8.70036C12.9171 8.11868 13.1639 7.40351 13.1667 6.66667V5C13.1667 4.77899 13.0789 4.56702 12.9226 4.41074C12.7663 4.25446 12.5543 4.16667 12.3333 4.16667ZM16.04 4.255C15.9129 4.19134 15.7717 4.16122 15.6298 4.16751C15.4878 4.1738 15.3498 4.2163 15.2289 4.29095C15.108 4.36561 15.0081 4.46994 14.9389 4.59405C14.8697 4.71815 14.8333 4.85789 14.8333 5V13.3333C14.8333 13.5543 14.9211 13.7663 15.0774 13.9226C15.2337 14.0789 15.4457 14.1667 15.6667 14.1667C15.8877 14.1667 16.0996 14.0789 16.2559 13.9226C16.4122 13.7663 16.5 13.5543 16.5 13.3333V12.3183L18.8867 11.72C19.1746 11.6419 19.4264 11.4663 19.599 11.2231C19.7717 10.9798 19.8545 10.6842 19.8333 10.3867C19.8355 9.1126 19.4815 7.8633 18.8112 6.77981C18.1409 5.69632 17.181 4.8218 16.04 4.255Z" fill="#A098AE"/>
</svg>
