<svg width="29" height="29" viewBox="0 0 29 29" fill="none" xmlns="http://www.w3.org/2000/svg">
<path d="M14 4.83333V14.4883L7.57668 20.91C7.4202 21.0665 7.33229 21.2787 7.33229 21.5C7.33229 21.7213 7.4202 21.9335 7.57668 22.09C7.73316 22.2465 7.94539 22.3344 8.16668 22.3344C8.38797 22.3344 8.6002 22.2465 8.75668 22.09L15.4233 15.4233C15.5007 15.3458 15.562 15.2538 15.6037 15.1525C15.6455 15.0513 15.6669 14.9428 15.6667 14.8333V4.83333C15.6667 4.61232 15.5789 4.40036 15.4226 4.24408C15.2663 4.0878 15.0544 4 14.8333 4C14.6123 4 14.4004 4.0878 14.2441 4.24408C14.0878 4.40036 14 4.61232 14 4.83333ZM28.1667 20.6667H18.1667C17.9457 20.6667 17.7337 20.7545 17.5774 20.9107C17.4211 21.067 17.3333 21.279 17.3333 21.5C17.3333 21.721 17.4211 21.933 17.5774 22.0893C17.7337 22.2455 17.9457 22.3333 18.1667 22.3333H28.1667C28.3877 22.3333 28.5997 22.2455 28.7559 22.0893C28.9122 21.933 29 21.721 29 21.5C29 21.279 28.9122 21.067 28.7559 20.9107C28.5997 20.7545 28.3877 20.6667 28.1667 20.6667Z" fill="#A098AE"/>
<path d="M26.5 4C26.279 4 26.067 4.0878 25.9107 4.24408C25.7545 4.40036 25.6667 4.61232 25.6667 4.83333V5.74667C24.3476 4.15311 22.6921 2.87122 20.8191 1.99294C18.9462 1.11465 16.902 0.66173 14.8333 0.666666C12.5036 0.666717 10.2098 1.24134 8.15518 2.33963C6.10055 3.43792 4.3485 5.02599 3.05423 6.96315C1.75995 8.9003 0.9634 11.1268 0.735135 13.4453C0.50687 15.7638 0.853936 18.1029 1.74559 20.2553C2.63724 22.4076 4.04596 24.3069 5.84696 25.7848C7.64795 27.2627 9.78563 28.2736 12.0706 28.728C14.3557 29.1823 16.7175 29.0662 18.9468 28.3897C21.1762 27.7133 23.2044 26.4975 24.8517 24.85C25.0086 24.6929 25.0967 24.4798 25.0965 24.2577C25.0963 24.0357 25.008 23.8228 24.8508 23.6658C24.6937 23.5089 24.4806 23.4208 24.2586 23.421C24.0365 23.4212 23.8236 23.5095 23.6667 23.6667C21.8666 25.4703 19.5583 26.6807 17.051 27.1357C14.5438 27.5907 11.9574 27.2685 9.63833 26.2124C7.3193 25.1563 5.37843 23.4166 4.0758 21.2265C2.77317 19.0364 2.17099 16.5006 2.34997 13.9586C2.52894 11.4167 3.4805 8.99024 5.07716 7.00429C6.67382 5.01833 8.8393 3.56779 11.2834 2.84703C13.7276 2.12627 16.3336 2.16971 18.7524 2.97153C21.1712 3.77336 23.2871 5.29527 24.8167 7.33333H23.1667C22.9457 7.33333 22.7337 7.42113 22.5774 7.57741C22.4211 7.73369 22.3333 7.94565 22.3333 8.16667C22.3333 8.38768 22.4211 8.59964 22.5774 8.75592C22.7337 8.9122 22.9457 9 23.1667 9H26.5C26.721 9 26.933 8.9122 27.0893 8.75592C27.2455 8.59964 27.3333 8.38768 27.3333 8.16667V4.83333C27.3333 4.61232 27.2455 4.40036 27.0893 4.24408C26.933 4.0878 26.721 4 26.5 4Z" fill="#A098AE"/>
<path d="M23.1666 10.6667C22.9456 10.6667 22.7337 10.7545 22.5774 10.9107C22.4211 11.067 22.3333 11.279 22.3333 11.5V12.4067C21.1462 12.5787 20.0408 13.1118 19.1669 13.9334C18.293 14.7551 17.693 15.8257 17.4483 17C17.3988 17.2425 17.4039 17.4929 17.4633 17.7331C17.5227 17.9733 17.6348 18.1973 17.7915 18.3888C17.9482 18.5804 18.1456 18.7346 18.3693 18.8403C18.5931 18.946 18.8375 19.0005 19.085 19H27.2516C27.4991 19.0005 27.7436 18.946 27.9673 18.8403C28.191 18.7346 28.3884 18.5804 28.5452 18.3888C28.7019 18.1973 28.814 17.9733 28.8733 17.7331C28.9327 17.4929 28.9378 17.2425 28.8883 17C28.6434 15.8252 28.0429 14.7543 27.1684 13.9326C26.2939 13.1108 25.1877 12.5781 24 12.4067V11.5C24 11.279 23.9122 11.067 23.7559 10.9107C23.5996 10.7545 23.3877 10.6667 23.1666 10.6667Z" fill="#A098AE"/>
</svg>
