<svg width="32" height="32" viewBox="0 0 32 32" fill="none" xmlns="http://www.w3.org/2000/svg">
<path d="M4 19V25C4 26.3261 4.52678 27.5979 5.46447 28.5355C6.40215 29.4732 7.67392 30 9 30H23C24.3261 30 25.5979 29.4732 26.5355 28.5355C27.4732 27.5979 28 26.3261 28 25V19C28 17.6739 27.4732 16.4021 26.5355 15.4645C25.5979 14.5268 24.3261 14 23 14H9C7.67392 14 6.40215 14.5268 5.46447 15.4645C4.52678 16.4021 4 17.6739 4 19ZM26 19V25C26 25.7956 25.6839 26.5587 25.1213 27.1213C24.5587 27.6839 23.7956 28 23 28H9C8.20435 28 7.44129 27.6839 6.87868 27.1213C6.31607 26.5587 6 25.7956 6 25V19C6 18.2044 6.31607 17.4413 6.87868 16.8787C7.44129 16.3161 8.20435 16 9 16H23C23.7956 16 24.5587 16.3161 25.1213 16.8787C25.6839 17.4413 26 18.2044 26 19Z" fill="#2E2E2E"/>
<path d="M16 26C16.7911 26 17.5644 25.7654 18.2222 25.3259C18.88 24.8864 19.3927 24.2616 19.6955 23.5307C19.9982 22.7998 20.0774 21.9956 19.9231 21.2196C19.7688 20.4437 19.3878 19.731 18.8284 19.1716C18.269 18.6122 17.5562 18.2312 16.7803 18.0769C16.0044 17.9225 15.2001 18.0017 14.4692 18.3045C13.7383 18.6072 13.1136 19.1199 12.6741 19.7777C12.2346 20.4355 12 21.2089 12 22C12 23.0609 12.4214 24.0783 13.1715 24.8284C13.9217 25.5786 14.9391 26 16 26ZM16 20C16.3955 20 16.7822 20.1173 17.1111 20.3371C17.44 20.5568 17.6963 20.8692 17.8477 21.2346C17.9991 21.6001 18.0387 22.0022 17.9615 22.3902C17.8844 22.7781 17.6939 23.1345 17.4142 23.4142C17.1345 23.6939 16.7781 23.8844 16.3901 23.9616C16.0022 24.0387 15.6 23.9991 15.2346 23.8478C14.8691 23.6964 14.5568 23.44 14.337 23.1111C14.1173 22.7822 14 22.3956 14 22C14 21.4696 14.2107 20.9609 14.5858 20.5858C14.9608 20.2107 15.4695 20 16 20ZM16.71 2.29C16.617 2.19627 16.5064 2.12188 16.3845 2.07111C16.2627 2.02034 16.132 1.9942 16 1.9942C15.868 1.9942 15.7372 2.02034 15.6154 2.07111C15.4935 2.12188 15.3829 2.19627 15.29 2.29L11.05 6.54C10.8564 6.72698 10.745 6.98321 10.7403 7.25232C10.7356 7.52144 10.838 7.78139 11.025 7.975C11.2119 8.16861 11.4682 8.28001 11.7373 8.2847C12.0064 8.28939 12.2664 8.18698 12.46 8L15 5.41V11C15 11.2652 15.1053 11.5196 15.2929 11.7071C15.4804 11.8946 15.7347 12 16 12C16.2652 12 16.5195 11.8946 16.7071 11.7071C16.8946 11.5196 17 11.2652 17 11V5.41L19.54 8C19.7262 8.18474 19.9776 8.2889 20.24 8.29C20.3799 8.29761 20.5199 8.27573 20.6508 8.22577C20.7817 8.17581 20.9007 8.09889 21 8C21.1862 7.81264 21.2908 7.55919 21.2908 7.295C21.2908 7.03081 21.1862 6.77736 21 6.59L16.71 2.29Z" fill="#2E2E2E"/>
</svg>
