<svg width="30" height="32" viewBox="0 0 30 32" fill="none" xmlns="http://www.w3.org/2000/svg">
<path d="M19.6437 22.3562L19.5687 19.7C20.1312 19.5937 20.9187 18.6437 21.2375 18.1375L20.1625 15.725C19.5687 15.6313 18.3375 15.575 17.8812 15.925L15.9562 14.0938C16.275 13.625 16.1625 12.4 16.025 11.8188L13.5562 10.875C13.075 11.2187 12.1687 12.0563 12.0937 12.625L9.4375 12.6937C9.33125 12.1312 8.375 11.3562 7.875 11.0312L5.4625 12.1062C5.36875 12.7 5.3125 13.9313 5.6625 14.3875L3.8375 16.3125C3.3625 15.9937 2.1375 16.1125 1.55625 16.2437L0.612495 18.7063C0.956245 19.2 1.79375 20.0938 2.35625 20.175L2.43125 22.8312C1.875 22.9438 1.09375 23.8875 0.768745 24.3937L1.85 26.8062C2.4375 26.9 3.66875 26.95 4.125 26.6125L6.05 28.4312C5.73125 28.9 5.85 30.1313 5.98125 30.7125L8.44375 31.6562C8.93125 31.3062 9.8375 30.4688 9.9125 29.9062L12.5687 29.8312C12.6812 30.4 13.625 31.175 14.1375 31.4937L16.5437 30.425C16.6437 29.825 16.6875 28.6 16.35 28.1437L18.1687 26.2125C18.6437 26.5375 19.8687 26.4187 20.4562 26.2875L21.3937 23.8187C21.0437 23.3375 20.2125 22.4375 19.6437 22.3562ZM13.8187 22.3375C13.6061 22.895 13.233 23.3769 12.7465 23.7224C12.2599 24.0678 11.6819 24.2612 11.0855 24.2781C10.4891 24.295 9.90101 24.1347 9.39569 23.8174C8.89038 23.5001 8.4905 23.0401 8.24663 22.4955C8.00276 21.951 7.92585 21.3463 8.02562 20.7581C8.12539 20.1698 8.39736 19.6243 8.80714 19.1906C9.21693 18.7569 9.74611 18.4545 10.3278 18.3215C10.9095 18.1886 11.5175 18.2311 12.075 18.4437C12.4455 18.5844 12.7846 18.7969 13.0729 19.0689C13.3612 19.3408 13.5929 19.667 13.7549 20.0288C13.9169 20.3905 14.0059 20.7806 14.0169 21.1768C14.0278 21.5729 13.9605 21.9674 13.8187 22.3375ZM29.375 5.1625C29.0812 4.91875 28.3875 4.4875 28.0437 4.6L26.9875 2.8C27.25 2.55625 27.2125 1.7375 27.1437 1.36875L25.3375 0.34375C24.9812 0.475 24.2625 0.8625 24.1875 1.2125L22.1 1.23125C22.0187 0.88125 21.2937 0.50625 20.9375 0.375L19.15 1.43125C19.0875 1.8 19.0625 2.61875 19.325 2.8625L18.3 4.675C17.95 4.56875 17.2625 5.0125 16.975 5.25625L16.9937 7.33125C17.2875 7.575 17.9812 8 18.325 7.89375L19.3812 9.69375C19.1187 9.9375 19.1562 10.7563 19.225 11.125L21.0312 12.15C21.3812 12.0187 22.1 11.6313 22.1812 11.2812L24.2625 11.2625C24.35 11.6125 25.075 11.9875 25.4312 12.1187L27.2187 11.0625C27.2812 10.6875 27.3062 9.875 27.0375 9.63125L28.0687 7.81875C28.4125 7.91875 29.1 7.48125 29.3875 7.2375L29.375 5.1625ZM23.1812 7.88125C22.8583 7.88063 22.5427 7.78433 22.2744 7.60451C22.0061 7.42468 21.7971 7.1694 21.6738 6.87088C21.5505 6.57237 21.5184 6.24401 21.5816 5.92726C21.6447 5.61051 21.8003 5.31958 22.0287 5.0912C22.2571 4.86282 22.548 4.70722 22.8648 4.64406C23.1815 4.5809 23.5099 4.613 23.8084 4.73631C24.1069 4.85963 24.3622 5.06863 24.542 5.33692C24.7218 5.60521 24.8181 5.92077 24.8187 6.24375C24.8192 6.45893 24.7772 6.67209 24.6951 6.87098C24.613 7.06987 24.4924 7.25059 24.3402 7.40274C24.1881 7.55489 24.0074 7.67549 23.8085 7.75761C23.6096 7.83973 23.3964 7.88174 23.1812 7.88125Z" fill="#A098AE"/>
</svg>
