<svg width="32" height="32" viewBox="0 0 32 32" fill="none" xmlns="http://www.w3.org/2000/svg">
<path d="M9 30H23C24.3261 30 25.5979 29.4732 26.5355 28.5355C27.4732 27.5979 28 26.3261 28 25V19C28 17.6739 27.4732 16.4021 26.5355 15.4645C25.5979 14.5268 24.3261 14 23 14H9C7.67392 14 6.40215 14.5268 5.46447 15.4645C4.52678 16.4021 4 17.6739 4 19V25C4 26.3261 4.52678 27.5979 5.46447 28.5355C6.40215 29.4732 7.67392 30 9 30ZM6 19C6 18.2044 6.31607 17.4413 6.87868 16.8787C7.44129 16.3161 8.20435 16 9 16H23C23.7956 16 24.5587 16.3161 25.1213 16.8787C25.6839 17.4413 26 18.2044 26 19V25C26 25.7956 25.6839 26.5587 25.1213 27.1213C24.5587 27.6839 23.7956 28 23 28H9C8.20435 28 7.44129 27.6839 6.87868 27.1213C6.31607 26.5587 6 25.7956 6 25V19Z" fill="#2E2E2E"/>
<path d="M16 26C16.7912 26 17.5645 25.7654 18.2223 25.3259C18.8801 24.8864 19.3928 24.2616 19.6955 23.5307C19.9983 22.7998 20.0775 21.9956 19.9232 21.2196C19.7688 20.4437 19.3879 19.731 18.8285 19.1716C18.269 18.6122 17.5563 18.2312 16.7804 18.0769C16.0045 17.9225 15.2002 18.0017 14.4693 18.3045C13.7384 18.6072 13.1137 19.1199 12.6741 19.7777C12.2346 20.4355 12 21.2089 12 22C12 23.0609 12.4215 24.0783 13.1716 24.8284C13.9217 25.5786 14.9392 26 16 26ZM16 20C16.3956 20 16.7823 20.1173 17.1112 20.3371C17.4401 20.5568 17.6964 20.8692 17.8478 21.2346C17.9992 21.6001 18.0388 22.0022 17.9616 22.3902C17.8844 22.7781 17.6939 23.1345 17.4142 23.4142C17.1345 23.6939 16.7782 23.8844 16.3902 23.9616C16.0022 24.0387 15.6001 23.9991 15.2347 23.8478C14.8692 23.6964 14.5569 23.44 14.3371 23.1111C14.1173 22.7822 14 22.3956 14 22C14 21.4696 14.2107 20.9609 14.5858 20.5858C14.9609 20.2107 15.4696 20 16 20ZM16 2C15.7348 2 15.4805 2.10536 15.2929 2.29289C15.1054 2.48043 15 2.73478 15 3V8.59L12.46 6.05C12.2687 5.88617 12.0227 5.80057 11.771 5.81029C11.5193 5.82001 11.2806 5.92434 11.1025 6.10244C10.9244 6.28053 10.82 6.51927 10.8103 6.77095C10.8006 7.02262 10.8862 7.2687 11.05 7.46L15.29 11.71C15.3822 11.8 15.4908 11.8713 15.61 11.92C15.7334 11.9723 15.866 11.9992 16 11.9992C16.134 11.9992 16.2666 11.9723 16.39 11.92C16.5092 11.8713 16.6179 11.8 16.71 11.71L21 7.46C21.1639 7.2687 21.2495 7.02262 21.2397 6.77095C21.23 6.51927 21.1257 6.28053 20.9476 6.10244C20.7695 5.92434 20.5308 5.82001 20.2791 5.81029C20.0274 5.80057 19.7813 5.88617 19.59 6.05L17 8.59V3C17 2.73478 16.8947 2.48043 16.7071 2.29289C16.5196 2.10536 16.2652 2 16 2Z" fill="#2E2E2E"/>
</svg>
